<svg id="Capa_4" data-name="Capa 4" xmlns="http://www.w3.org/2000/svg" xmlns:xlink="http://www.w3.org/1999/xlink" viewBox="0 0 866.78 845.7"><defs><style>.cls-1{fill:url(#Degradado_sin_nombre_5);}.cls-2{fill:url(#Degradado_sin_nombre_5-2);}.cls-3{fill:url(#Degradado_sin_nombre_5-3);}.cls-4{fill:url(#Degradado_sin_nombre_5-4);}.cls-5{fill:url(#Degradado_sin_nombre_5-5);}.cls-6{fill:url(#Degradado_sin_nombre_5-6);}.cls-7{fill:url(#Degradado_sin_nombre_5-7);}.cls-8{fill:url(#Degradado_sin_nombre_5-8);}</style><radialGradient id="Degradado_sin_nombre_5" cx="813.25" cy="430.21" r="113.61" gradientTransform="translate(0 -3011.47) scale(1 8)" gradientUnits="userSpaceOnUse"><stop offset="0" stop-color="#fff"/><stop offset="1"/></radialGradient><radialGradient id="Degradado_sin_nombre_5-2" cx="320.36" cy="424.05" r="202.93" gradientTransform="translate(0 -2968.33) scale(1 8)" xlink:href="#Degradado_sin_nombre_5"/><radialGradient id="Degradado_sin_nombre_5-3" cx="509.36" cy="471.79" r="0" gradientTransform="translate(0 -3302.51) scale(1 8)" xlink:href="#Degradado_sin_nombre_5"/><radialGradient id="Degradado_sin_nombre_5-4" cx="546.55" cy="487.45" r="340.4" gradientTransform="translate(0 -3412.16) scale(1 8)" xlink:href="#Degradado_sin_nombre_5"/><radialGradient id="Degradado_sin_nombre_5-5" cx="465.51" cy="467.61" r="0" gradientTransform="translate(0 -3273.28) scale(1 8)" xlink:href="#Degradado_sin_nombre_5"/><radialGradient id="Degradado_sin_nombre_5-6" cx="605.42" cy="185.71" r="0" gradientTransform="translate(0 -1300) scale(1 8)" xlink:href="#Degradado_sin_nombre_5"/><radialGradient id="Degradado_sin_nombre_5-7" cx="410.95" cy="375.86" r="0" gradientTransform="translate(0 -2630.99) scale(1 8)" xlink:href="#Degradado_sin_nombre_5"/><radialGradient id="Degradado_sin_nombre_5-8" cx="535.93" cy="317.3" r="83.79" gradientTransform="translate(-66.61 -2285.72) scale(1 8)" xlink:href="#Degradado_sin_nombre_5"/></defs><path class="cls-1" d="M768.29,323.53c42.53,7.9,160.37,32.81,165,79.35C940,471.54,695.88,542.65,693.12,536.52c-2.51-5.59,197-72.51,190-139.91C879.39,360.62,818.07,337.36,768.29,323.53Z" transform="translate(-66.61 -64.6)"/><path class="cls-2" d="M313.08,290.12c-32.18-1-93.68,1.88-156.61,37.59C126,345,64.25,380,66.68,419.58c3.74,60.84,157,96.4,227.61,112.76,143.84,33.37,278.92,28,279.81,18.8.23-2.45-9.08-4.51-96.06-25.06-89.81-21.22-135-31.9-148.34-35.59C231,463.24,154.91,442.22,150.21,407.06,143.1,354,301.91,294.24,313.08,290.12Z" transform="translate(-66.61 -64.6)"/><path class="cls-3" d="M509.36,471.79" transform="translate(-66.61 -64.6)"/><path class="cls-4" d="M528.16,910.3c2.37.51,10.12-27.2,12.53-35.5C575.06,756,688.08,551.53,710.46,511.49c24.87-44.5,66.19-115.68,66.19-210.93h0c-2.51-26.2-11.51-82.17-52.21-135.73-12-15.75-76-100.07-181.67-100.23C462.54,64.48,408,113,392.43,127.25c-41.93,38.43-58.24,81.38-62.64,94C308,283.38,309.26,369.93,361.11,427.94a199,199,0,0,0,24.11,22.42c24.11,16.07,50.73,20.36,51.06,19.34.22-.67-10.52-4.5-14.62-6.26-34-14.68-94.76-95.92-79.35-190,15-91.69,93.32-141.68,133.64-156.61,1.42-.53,3.55-1.32,6.32-2.26,59.81-20.34,117.07-5.34,137.77,2.26,69.9,25.64,115.49,112.66,123.2,187.93C751,381,708.07,460.67,622.12,620,594,672.29,559.44,730.65,540.69,818.42,533,854.26,524.85,909.58,528.16,910.3Z" transform="translate(-66.61 -64.6)"/><path class="cls-5" d="M465.51,467.61" transform="translate(-66.61 -64.6)"/><path class="cls-6" d="M605.42,185.71" transform="translate(-66.61 -64.6)"/><path class="cls-7" d="M411,375.86" transform="translate(-66.61 -64.6)"/><polygon class="cls-8" points="528.58 282.33 528.58 172.7 556.73 172.7 556.73 332.7 528.58 332.7 436.73 230.48 436.73 332.7 411.54 332.7 411.54 203.81 381.91 172.7 427.84 172.7 528.58 282.33"/></svg>