<?xml version="1.0" standalone="no"?>
<!DOCTYPE svg PUBLIC "-//W3C//DTD SVG 20010904//EN"
 "http://www.w3.org/TR/2001/REC-SVG-20010904/DTD/svg10.dtd">
<svg version="1.0" xmlns="http://www.w3.org/2000/svg"
 width="240.000000pt" height="64.000000pt" viewBox="0 0 240.000000 64.000000"
 preserveAspectRatio="xMidYMid meet">

<g transform="translate(0.000000,64.000000) scale(0.100000,-0.100000)"
fill="#000000" stroke="none">
<path d="M144 586 c-24 -24 -44 -49 -44 -57 0 -7 42 -55 94 -107 68 -68 99
-93 111 -88 24 9 38 -3 24 -20 -9 -11 -8 -14 2 -14 7 0 34 20 59 45 l46 45 24
-25 24 -26 -63 -60 -64 -60 -23 22 c-13 12 -20 27 -17 37 5 11 2 14 -10 9 -9
-3 -19 -2 -22 3 -10 16 -41 11 -58 -7 -8 -10 -18 -43 -22 -74 -6 -51 -5 -59
15 -79 20 -20 29 -22 78 -16 68 8 96 29 88 67 -3 18 1 32 13 43 25 23 31 20
31 -12 0 -22 19 -47 89 -115 49 -48 95 -87 103 -87 19 0 98 82 98 101 0 8 -42
56 -93 107 -75 73 -98 90 -115 85 -20 -5 -21 -3 -16 28 4 19 8 35 8 36 1 1 22
-5 46 -13 65 -22 153 -2 166 39 5 14 -7 33 -47 73 -29 30 -51 54 -49 55 3 0
16 2 28 3 30 3 44 25 31 47 -21 40 -57 32 -66 -13 l-6 -30 -51 51 c-28 28 -57
51 -63 51 -19 0 -51 -48 -57 -88 -6 -34 0 -67 19 -114 5 -14 2 -18 -13 -18
-12 0 -24 -5 -27 -10 -11 -17 -26 0 -19 22 5 16 -13 39 -87 114 -52 52 -100
94 -108 94 -7 0 -33 -20 -57 -44z m196 -191 l-40 -40 -87 87 -87 88 39 40 39
40 88 -87 88 -88 -40 -40z m339 -7 c-23 -20 -113 -25 -139 -8 -12 7 -12 12 4
29 34 38 -7 79 -45 45 -17 -16 -22 -16 -29 -4 -16 25 -12 113 6 139 l17 23
104 -103 c103 -104 104 -104 82 -121z m-13 181 c10 -17 -13 -36 -27 -22 -12
12 -4 33 11 33 5 0 12 -5 16 -11z m-155 -162 c-17 -17 -34 -28 -37 -24 -10 10
47 68 59 60 5 -3 -5 -19 -22 -36z m-129 -32 c0 -14 -29 -31 -38 -22 -9 8 16
39 28 35 5 -2 10 -8 10 -13z m98 -94 c0 -13 -29 -35 -37 -28 -7 8 15 37 28 37
5 0 9 -4 9 -9z m-160 -57 c49 -52 51 -57 36 -72 -15 -15 -20 -12 -73 40 -48
49 -55 59 -44 72 8 9 17 16 21 16 4 0 31 -25 60 -56z m300 -29 l85 -85 -40
-40 -40 -40 -90 90 -89 90 34 35 c19 19 39 35 45 35 6 0 49 -38 95 -85z m-320
-57 c0 -14 -43 -8 -62 9 -18 16 -24 44 -11 57 7 7 73 -52 73 -66z"/>
<path d="M1972 458 c-18 -18 -15 -45 7 -60 14 -10 21 -29 24 -64 l3 -49 2 53
c1 36 7 54 17 58 20 8 29 42 15 59 -15 18 -52 19 -68 3z"/>
<path d="M770 440 c0 -15 7 -20 25 -20 25 0 25 -1 25 -85 0 -78 2 -85 20 -85
18 0 20 7 20 85 0 84 0 85 25 85 18 0 25 5 25 20 0 18 -7 20 -70 20 -63 0 -70
-2 -70 -20z"/>
<path d="M947 453 c-4 -3 -7 -51 -7 -105 0 -98 0 -98 25 -98 23 0 25 4 25 40
0 50 9 51 35 2 12 -23 29 -38 43 -40 27 -4 27 2 1 44 l-21 34 21 26 c27 34 26
49 -4 79 -18 19 -35 25 -68 25 -24 0 -47 -3 -50 -7z m91 -60 c3 -19 -1 -23
-22 -23 -21 0 -26 5 -26 26 0 21 4 25 23 22 14 -2 23 -11 25 -25z"/>
<path d="M1176 429 c-42 -102 -66 -163 -66 -171 0 -11 38 -10 45 2 3 6 22 10
41 10 19 0 34 -4 34 -10 0 -5 11 -10 25 -10 14 0 25 2 25 3 0 7 -80 200 -85
205 -3 3 -11 -10 -19 -29z m33 -111 c1 -5 -6 -8 -14 -8 -16 0 -19 9 -8 36 6
16 7 16 14 -2 4 -10 8 -22 8 -26z"/>
<path d="M1338 431 c-28 -25 -33 -36 -33 -76 0 -40 5 -51 33 -76 27 -24 41
-29 70 -27 30 2 38 7 40 26 3 20 0 22 -22 16 -17 -4 -35 0 -51 10 -54 35 -18
123 47 114 17 -2 23 2 23 17 0 16 -8 21 -37 23 -29 2 -43 -3 -70 -27z"/>
<path d="M1490 355 c0 -98 1 -105 20 -105 16 0 20 7 20 38 1 35 1 36 16 17 8
-11 20 -28 27 -38 8 -12 21 -18 36 -15 l23 3 -29 40 c-16 22 -32 45 -36 51 -3
6 7 30 24 55 34 52 35 59 10 59 -12 0 -29 -15 -43 -37 l-23 -38 -3 38 c-3 29
-7 37 -23 37 -18 0 -19 -8 -19 -105z"/>
<path d="M1660 356 l0 -106 55 0 c48 0 55 2 55 20 0 16 -7 20 -35 20 -28 0
-35 4 -35 20 0 16 7 20 30 20 23 0 30 5 30 19 0 14 -8 21 -27 23 -20 2 -28 9
-28 23 0 15 8 21 33 23 25 3 32 8 30 20 -2 13 -16 18 -56 20 l-52 3 0 -105z"/>
<path d="M1810 355 c0 -98 1 -105 20 -105 17 0 20 7 20 40 0 22 4 40 10 40 5
0 19 -18 30 -40 15 -30 26 -40 45 -40 l24 0 -23 41 c-23 40 -23 42 -5 60 25
25 24 64 -1 89 -15 15 -33 20 -70 20 l-50 0 0 -105z m90 50 c16 -19 4 -35 -26
-35 -19 0 -24 5 -24 25 0 29 29 35 50 10z"/>
<path d="M2060 454 c0 -3 12 -25 26 -50 l26 -44 -32 -55 -31 -55 25 0 c19 0
30 9 45 37 l19 38 18 -38 c13 -27 24 -37 41 -37 29 0 29 3 -7 62 l-30 49 25
43 c30 52 31 56 5 56 -12 0 -25 -10 -32 -25 -6 -14 -15 -25 -20 -25 -5 0 -14
11 -20 25 -7 16 -19 25 -35 25 -12 0 -23 -3 -23 -6z"/>
</g>
</svg>
