<svg xmlns="http://www.w3.org/2000/svg" viewBox="0 0 866.78 845.7">
    <g id="Capa_5" data-name="Capa 5">
        <path d="M768.77,336.23c42.52,7.89,160.37,32.81,165,79.35,6.79,68.66-237.38,139.77-240.13,133.64-2.51-5.59,197-72.51,190-139.91C879.87,373.32,818.55,350.06,768.77,336.23Z" transform="translate(-67.09 -77.3)"/>
        <path d="M313.56,302.82c-32.18-1-93.68,1.88-156.61,37.58-30.52,17.32-92.22,52.33-89.79,91.88C70.9,493.12,224.21,528.68,294.77,545c143.84,33.36,278.92,28,279.81,18.79.23-2.44-9.09-4.51-96.06-25.05-89.81-21.22-135-31.9-148.34-35.59-98.68-27.26-174.79-48.28-179.5-83.44C143.58,366.71,302.39,306.94,313.56,302.82Z" transform="translate(-67.09 -77.3)"/>
        <path d="M509.84,484.49" transform="translate(-67.09 -77.3)"/>
        <path d="M528.64,923c2.37.51,10.12-27.19,12.53-35.5,34.37-118.82,147.39-323.26,169.77-363.3,24.87-44.5,66.18-115.68,66.18-210.93h0c-2.5-26.2-11.51-82.17-52.2-135.73-12-15.75-76-100.07-181.67-100.23-80.23-.12-134.78,48.38-150.34,62.64-41.93,38.44-58.24,81.39-62.65,94-21.77,62.17-20.52,148.72,31.33,206.72a197.8,197.8,0,0,0,24.11,22.43c24.11,16.07,50.73,20.36,51.06,19.34.22-.67-10.52-4.5-14.62-6.27-34-14.67-94.76-95.91-79.35-190,15-91.68,93.32-141.67,133.64-156.61,1.42-.52,3.55-1.31,6.32-2.25,59.81-20.34,117.07-5.34,137.76,2.25,69.91,25.65,115.5,112.67,123.2,187.94,7.81,76.24-35.17,155.92-121.11,315.3C594.43,685,559.92,743.35,541.17,831.12,533.51,867,525.33,922.28,528.64,923Z" transform="translate(-67.09 -77.3)"/>
        <path d="M466,480.31" transform="translate(-67.09 -77.3)"/>
        <path d="M605.9,198.41" transform="translate(-67.09 -77.3)"/>
        <path d="M411.43,388.55" transform="translate(-67.09 -77.3)"/>
    </g>
    <g id="Capa_3" data-name="Capa 3">
        <polygon points="528.58 282.33 528.58 172.7 556.73 172.7 556.73 332.7 528.58 332.7 436.73 230.48 436.73 332.7 411.54 332.7 411.54 203.81 381.91 172.7 427.84 172.7 528.58 282.33"/>
    </g>
</svg>